<svg width="116" height="74" viewBox="0 0 116 74" fill="none" xmlns="http://www.w3.org/2000/svg">
<path d="M27.4778 27.864C27.4693 27.9036 27.4414 27.927 27.4134 27.9504C27.4056 27.9239 27.3978 27.8973 27.4031 27.8456C27.4303 27.8296 27.4444 27.8388 27.4778 27.864Z" fill="#B1C6DC"/>
<path d="M48.8791 55.4328C48.7437 56.2904 48.6084 57.1481 48.4309 58.0479C47.9343 58.35 47.4799 58.6101 47.0254 58.8701C47.0424 58.9159 47.0594 58.9616 47.0763 59.0073C47.579 58.9628 48.0817 58.9183 48.5844 58.8738C50.6469 58.8738 52.7095 58.8738 54.7986 58.8738C54.7986 63.6228 54.7986 68.3242 54.7986 73.0642C36.5509 73.0642 18.2934 73.0642 0 73.0642C0 48.7455 0 24.4112 0 0.043457C18.117 0.043457 36.2423 0.043457 54.3982 0.043457C54.3982 4.75624 54.3982 9.46924 54.3982 14.2166C42.0902 14.2166 29.7962 14.2166 17.4635 14.2166C17.4635 18.8979 17.4635 23.5451 17.4635 28.2567C18.7668 28.2567 20.0821 28.2567 21.4893 28.2566C22.0464 28.2543 22.5118 28.252 23.0146 28.2609C23.1553 28.2689 23.2586 28.2657 23.4085 28.2722C24.6173 28.2726 25.7794 28.2635 26.9867 28.2679C27.7902 28.2838 28.5483 28.2905 29.3065 28.2877C31.152 28.2809 32.9975 28.2697 34.8854 28.2672C37.0163 28.274 39.1046 28.274 41.2449 28.274C41.2449 30.6724 41.2449 32.9858 41.2399 35.3343C41.2388 35.4636 41.2425 35.5577 41.2384 35.6985C41.2306 37.957 41.2306 40.1687 41.2306 42.4108C39.9742 42.4108 38.8024 42.4048 37.6308 42.4134C37.055 42.4176 36.4795 42.4487 35.8725 42.4471C35.7185 42.4356 35.5959 42.4448 35.4293 42.4407C33.5882 42.4219 31.7912 42.4142 29.9942 42.4134C29.734 42.4133 29.4737 42.4462 29.168 42.4659C25.2321 42.4678 21.3416 42.4678 17.4589 42.4678C17.4589 47.985 17.4589 53.4191 17.4589 58.8829C23.9827 58.8829 30.4724 58.8829 36.9884 58.9167C39.556 58.9575 42.0972 58.9696 44.6384 58.9576C44.7792 58.9569 44.9771 58.7846 45.0493 58.6423C45.3524 58.0453 45.6177 57.4292 45.9291 56.8042C46.3576 56.5961 46.7511 56.3978 47.1509 56.213C47.7245 55.9477 48.3028 55.6923 48.8791 55.4328Z" fill="#F05A28"/>
<path d="M94.1113 34.087C94.1113 46.8936 94.1114 59.6508 94.1113 72.4081C94.1113 73.1023 94.1109 73.1027 93.4174 73.1027C88.0441 73.1028 82.6709 73.1029 77.2977 73.1027C76.6519 73.1026 76.6511 73.1019 76.6511 72.4598C76.6509 53.2992 76.6512 34.1387 76.6501 14.9781C76.6501 14.1557 76.7318 14.2343 75.9082 14.2342C69.2288 14.2327 62.5495 14.2334 55.8702 14.2332C55.2232 14.2332 55.2225 14.2325 55.2225 13.5916C55.2222 9.26237 55.2297 4.9331 55.2119 0.60394C55.21 0.128978 55.3421 -0.000276814 55.8189 4.44832e-07C75.5263 0.0115304 95.2336 0.0115062 114.941 9.6904e-05C115.415 -0.000177392 115.552 0.123746 115.55 0.601625C115.533 4.94725 115.533 9.293 115.55 13.6386C115.552 14.1126 115.422 14.2446 114.944 14.2436C108.215 14.2286 101.486 14.2333 94.7572 14.2335C94.1122 14.2335 94.1115 14.2343 94.1115 14.8771C94.1113 21.2639 94.1113 27.6508 94.1113 34.087Z" fill="white"/>
<path d="M49.9668 15.7233C50.5935 15.7362 51.2276 15.6928 51.8454 15.7734C53.21 15.9514 54.568 16.1825 55.9259 16.4091C57.5644 16.6825 59.238 16.8139 60.7561 17.5858C61.9982 18.2174 63.1023 19.0447 64.0005 20.0917C64.53 20.7088 64.9487 21.4443 65.3036 22.1809C66.1557 23.9493 67.0244 25.7178 67.7293 27.5464C68.4459 29.4054 68.4437 31.3916 68.4287 33.3678C68.4159 35.0552 67.8613 36.5401 66.9047 37.8863C65.9489 39.2315 64.6629 40.191 63.1265 40.7962C62.1374 41.1858 61.1232 41.5119 60.1293 41.8901C59.9101 41.9735 59.7057 42.1325 59.5348 42.298C58.8119 42.998 58.0842 43.695 57.3968 44.4287C56.7177 45.1536 56.1124 45.9475 55.4258 46.6647C54.2158 47.9285 52.7251 48.7756 51.0993 49.3953C50.3872 49.6667 50.0947 50.0153 50.0231 50.7444C49.9731 50.7998 49.952 50.8088 49.9521 50.8175C49.9525 50.8404 49.9621 50.8631 49.968 50.8858C49.968 50.8858 49.9658 50.8796 49.937 50.8611C49.264 51.4151 48.6196 51.9876 47.9777 52.5585C47.98 52.5569 47.9842 52.553 47.9534 52.5571C47.9076 52.5946 47.8926 52.6279 47.88 52.6594C47.8824 52.6575 47.8871 52.6535 47.8531 52.6465C47.7074 52.7104 47.5958 52.7814 47.4528 52.8514C47.3745 52.8853 47.3275 52.9203 47.2832 52.9538C47.2858 52.9522 47.2905 52.9484 47.2521 52.9492C46.7902 53.0642 46.3669 53.1784 45.9296 53.249C45.8416 52.6853 45.7502 52.1669 45.6999 51.6445C45.6699 51.3328 45.5286 51.2221 45.2297 51.219C44.7512 51.214 44.2721 51.1965 43.7953 51.1588C43.6811 51.1497 43.5748 51.0402 43.4648 50.977C43.5824 50.9168 43.6958 50.8181 43.8184 50.8049C44.0462 50.7805 44.2798 50.7988 44.5102 50.812C45.1537 50.8486 45.358 50.6633 45.4272 49.9759C46.2518 49.7269 47.0451 49.4992 47.8384 49.2716C47.8234 49.211 47.8084 49.1504 47.7934 49.0898C46.8306 49.2196 45.8678 49.3493 44.9054 49.4338C44.9375 48.4415 44.9693 47.4943 45.038 46.5336C45.6849 46.3292 46.2983 46.1486 46.9038 45.9451C47.6397 45.6978 48.3774 45.6381 49.1374 45.825C49.3611 45.88 49.6008 45.8709 49.9078 45.8977C49.8221 45.781 49.8092 45.7489 49.7854 45.734C49.73 45.6993 49.6704 45.6708 49.6108 45.6436C48.6043 45.1847 47.6003 45.3035 46.578 45.6118C45.9701 45.7951 45.3362 45.8927 44.7113 45.9849C44.6933 45.7121 44.6948 45.4807 44.6599 45.2549C44.4342 43.7979 44.4031 42.3342 44.7639 40.9051C45.1666 39.3103 45.6769 37.7425 46.1599 36.1392C46.4806 35.8649 46.7817 35.6144 47.1045 35.3457C47.6559 35.867 48.2663 36.1462 49.0095 35.9482C49.8503 35.7241 50.5266 34.8992 50.5777 34.0545C50.6459 32.9262 50.2931 32.3299 49.3198 31.9115C49.0622 31.8008 49.0742 31.9255 49.1156 32.0796C49.0432 31.9087 48.9853 31.7636 48.9199 31.5828C48.4848 30.7984 47.9059 30.2043 47.1037 29.8609C46.7123 29.6934 46.3002 29.5741 45.898 29.3921C45.9642 28.6972 46.0298 28.0431 46.1364 27.3828C46.8149 27.4884 47.4525 27.6001 48.0901 27.7118C48.1021 27.6678 48.1141 27.6237 48.1261 27.5796C47.5127 27.3422 46.8994 27.1048 46.2895 26.8282C46.3265 26.5609 46.3599 26.3328 46.4318 26.1049C47.2375 26.2937 48.0048 26.4823 48.7721 26.671C48.7819 26.6416 48.7917 26.6123 48.8014 26.5829C48.0283 26.2658 47.2551 25.9486 46.4913 25.5954C46.6306 25.2471 46.7604 24.9349 46.9285 24.6219C47.8783 24.8425 48.7898 25.0638 49.7013 25.2852C49.7124 25.2543 49.7235 25.2235 49.7346 25.1926C48.8435 24.8268 47.9525 24.461 47.0687 24.0551C47.1029 23.7535 47.1296 23.4919 47.1732 23.2017C47.2224 23.0942 47.2547 23.0154 47.3204 22.9195C47.5139 22.7755 47.6741 22.6487 47.8647 22.541C48.8575 23.1569 49.8036 23.7826 50.7911 24.3348C51.1447 24.5325 51.5985 24.5527 52.0066 24.6539C50.3583 23.9587 49.0017 22.927 47.9075 21.5394C48.4731 20.0067 49.0144 18.5021 49.5784 16.9687C49.9659 16.8096 50.3307 16.6794 50.6956 16.5491C50.6886 16.5195 50.6816 16.49 50.6745 16.4604C50.4058 16.4236 50.1371 16.3868 49.868 16.3098C49.9007 16.0875 49.9337 15.9054 49.9668 15.7233ZM64.4123 33.8691C64.7936 33.3739 65.3238 32.9558 65.3082 32.2553C65.2518 32.2276 65.1954 32.1999 65.1389 32.1721C64.8778 32.7467 64.6167 33.3213 64.3121 33.8823C64.3089 33.9068 64.3057 33.9314 64.3026 33.956C64.3175 33.9327 64.3325 33.9093 64.4123 33.8691ZM63.5569 28.1426C63.6047 28.1862 63.6525 28.2297 63.7004 28.2732C63.7192 28.2567 63.7381 28.2402 63.757 28.2238C63.7126 28.1507 63.6682 28.0776 63.5896 27.9465C62.6964 26.5316 61.3399 26.1334 59.7613 26.2212C61.2229 26.4338 62.4862 27.0439 63.5569 28.1426ZM55.2949 22.8139C55.5904 22.3513 55.975 21.9212 56.1604 21.4184C56.437 20.6683 56.0835 19.8623 55.5887 19.5968C55.4619 20.6316 55.3292 21.714 55.1399 22.82C55.1015 22.8932 55.0632 22.9665 55.0248 23.0398C55.052 23.0514 55.0792 23.0631 55.1064 23.0748C55.1481 22.995 55.1899 22.9152 55.2949 22.8139ZM63.8784 34.1911C62.1708 35.4051 60.2591 35.789 58.1919 35.5493C60.1533 36.1103 61.9904 35.9051 63.659 34.7022C63.8073 34.5952 63.881 34.3856 64.0241 34.1916C64.0173 34.1648 64.0105 34.138 64.0036 34.1113C63.9845 34.1336 63.9653 34.1559 63.8784 34.1911ZM56.1371 26.5025C57.1971 26.2315 58.2487 25.9201 59.319 25.6983C61.3682 25.2734 63.0172 25.941 64.2579 27.6176C64.3035 27.6793 64.377 27.7205 64.4376 27.7713C64.4769 27.7357 64.5163 27.7 64.5556 27.6644C64.2261 27.2447 63.9549 26.7573 63.5565 26.4177C62.2182 25.2769 60.6332 24.9704 58.9217 25.2401C57.8508 25.4088 56.8625 25.7872 55.9414 26.4832C55.5569 26.7808 55.1723 27.0784 54.7878 27.376C54.8318 27.4278 54.8758 27.4795 54.9199 27.5312C55.3038 27.1968 55.6877 26.8625 56.1371 26.5025ZM61.9695 33.3471C62.5017 32.9465 63.0659 32.5808 63.5573 32.1354C64.0487 31.6899 64.1477 31.0981 63.789 30.5221C63.4346 29.9529 63.0693 29.3727 62.6114 28.8887C61.5248 27.74 60.1949 27.1802 58.5668 27.3496C56.6683 27.547 55.2311 28.5908 53.8626 29.774C53.5171 30.0727 53.2066 30.4264 52.9411 30.7981C52.5576 31.3349 52.6302 31.85 53.121 32.2965C53.3624 32.5162 53.6371 32.7082 53.9202 32.8726C55.1224 33.5706 56.4204 33.9983 57.8116 34.0561C59.2156 34.1145 60.6052 33.9975 61.9695 33.3471ZM63.7664 35.7397C62.5024 36.4786 61.0945 36.6049 59.6679 36.7037C59.8332 36.7802 60.0004 36.829 60.171 36.8568C61.2163 37.0269 62.2042 36.7376 63.1857 36.4526C64.8244 35.9767 66.5483 33.7694 66.6175 32.1022C66.6854 30.4688 66.3999 28.8972 65.8188 27.3719C65.3099 26.0364 64.5577 24.8967 63.3266 24.1022C61.4343 22.881 59.3878 22.6567 57.2408 23.1691C56.4236 23.3641 55.6329 23.6688 54.8301 23.9236C54.8489 23.9863 54.8676 24.0491 54.8864 24.1118C55.9432 23.9066 57.003 23.7149 58.0563 23.4931C59.6676 23.1538 61.1774 23.4244 62.5898 24.2331C65.1032 25.672 66.0969 28.0087 66.2504 30.7352C66.3659 32.786 65.6073 34.5154 63.7664 35.7397ZM52.2074 36.3497C51.7924 35.9425 51.5846 35.334 50.9173 34.9918C51.117 35.2821 51.2849 35.4472 51.3595 35.6469C52.1464 37.7515 52.9715 39.8442 53.6741 41.9768C54.0865 43.2283 53.7863 44.4179 52.8354 45.3949C52.7853 45.4464 52.7558 45.5177 52.7167 45.5798C52.9593 45.5296 53.1599 45.4264 53.3172 45.2778C54.2541 44.3924 54.4228 43.2606 54.142 42.0989C53.7578 40.5094 53.2581 38.9466 52.7763 37.382C52.6696 37.0355 52.4308 36.7292 52.2074 36.3497ZM51.4943 28.1561C51.0559 29.6515 50.8618 31.1406 51.5995 32.61C51.7255 30.8483 51.4464 29.0623 52.0756 27.3415C52.016 27.3234 51.9563 27.3054 51.8967 27.2873C51.7723 27.5529 51.648 27.8185 51.4943 28.1561ZM58.6959 40.1522C59.7932 40.5686 60.8963 40.6613 62.0154 40.1579C60.8175 40.0113 59.6195 39.8648 58.4216 39.7182C58.3996 39.7635 58.3776 39.8089 58.3556 39.8543C58.4443 39.9445 58.533 40.0347 58.6959 40.1522ZM60.4969 21.3008C60.1563 21.6883 59.8156 22.0759 59.4749 22.4635C60.6863 22.2421 61.5392 21.1159 61.2565 20.1414C60.9925 20.5502 60.7679 20.898 60.4969 21.3008ZM53.4247 22.9718C53.4576 23.0183 53.4904 23.0647 53.5233 23.1111C53.507 22.4659 53.3812 21.8531 53.3069 21.2342C53.228 20.5774 52.7966 20.179 52.2933 19.8016C52.6613 20.8355 53.0293 21.8695 53.4247 22.9718ZM56.1264 42.526C56.0943 43.0167 56.0621 43.5074 56.0256 44.0641C56.702 43.1691 56.7806 41.1976 56.1296 40.9079C56.1296 41.4328 56.1296 41.9309 56.1264 42.526ZM58.0594 21.3155C57.9491 21.4748 57.8388 21.6342 57.6632 21.8878C58.7254 21.2865 59.0756 20.1664 58.5121 19.4191C58.3694 20.0356 58.2295 20.6403 58.0594 21.3155ZM63.7758 28.4009C63.7947 28.402 63.8136 28.4031 63.8325 28.4042C63.8237 28.3933 63.8148 28.3824 63.7758 28.4009Z" fill="#EF5B29"/>
<path d="M47.8341 22.5217C47.6739 22.6486 47.5137 22.7754 47.2846 22.9083C46.1304 22.534 45.0367 22.3764 43.7996 22.8072C44.2587 22.8565 44.6003 22.8867 44.9401 22.9308C45.6793 23.0269 46.4176 23.13 47.1562 23.2303C47.1294 23.4918 47.1027 23.7534 47.0291 24.0618C46.6558 24.1605 46.3293 24.2124 46.0028 24.2643C46.0037 24.2887 46.0045 24.3131 46.0053 24.3376C46.3002 24.4326 46.5951 24.5276 46.89 24.6226C46.7602 24.9348 46.6304 25.247 46.4524 25.6023C46.0385 25.6843 45.673 25.7231 45.3075 25.7619C45.3102 25.7906 45.3129 25.8194 45.3156 25.8482C45.6748 25.9337 46.034 26.0192 46.3932 26.1047C46.3597 26.3328 46.3263 26.5608 46.2437 26.8343C44.9095 26.9086 43.6033 26.7975 42.4454 27.3889C43.64 27.3889 44.8676 27.3889 46.0952 27.3889C46.0296 28.043 45.964 28.6971 45.8522 29.4014C44.5675 29.44 43.3345 29.4485 42.4409 30.2766C43.6073 30.237 44.8516 30.1948 46.1008 30.1933C46.1355 30.7075 46.1736 31.1806 46.1935 31.6544C46.2457 32.899 46.2901 34.144 46.3106 35.4187C45.8955 35.5208 45.4969 35.5591 45.1212 35.6727C44.3639 35.9016 43.9199 35.6335 43.5602 34.9465C43.2264 34.3092 42.6515 33.8889 41.8237 33.7574C41.9526 34.052 42.0558 34.285 42.1566 34.5191C42.2588 34.7562 42.3586 34.9943 42.4879 35.2992C42.0267 35.2992 41.636 35.2992 41.2453 35.2992C41.2453 32.9858 41.2453 30.6724 41.2453 28.274C39.1051 28.274 37.0167 28.274 34.8637 28.2383C34.2991 27.8897 33.81 27.5576 33.2972 27.2671C31.1139 26.0306 28.4448 26.4506 26.9419 28.2544C25.7798 28.2635 24.6177 28.2726 23.4156 28.236C23.9738 26.6348 24.7944 25.221 26.097 24.1419C27.8181 22.7162 29.8405 22.3637 32.0054 22.5769C32.4484 22.6205 32.8892 22.6865 33.331 22.7422C33.3404 22.675 33.3499 22.6079 33.3594 22.5408C32.5244 22.4247 31.6921 22.2354 30.8541 22.2061C28.0082 22.1065 25.7291 23.1613 24.259 25.6635C23.7728 26.4912 23.4014 27.3857 22.9776 28.2497C22.5122 28.252 22.0469 28.2542 21.5356 28.2498C21.1448 28.1448 21.044 27.9984 21.2059 27.6138C22.0782 25.5415 22.7908 23.3929 23.7917 21.3859C25.2974 18.3664 27.839 16.5992 31.2046 16.1172C33.2344 15.8266 35.2792 15.6373 37.3191 15.4204C38.1681 15.3301 39.0213 15.2719 39.874 15.2248C41.2166 15.1506 42.4918 15.4616 43.7198 15.9716C44.7557 16.4019 45.7912 16.4452 46.8508 16.0781C47.8309 15.7386 48.8471 15.6775 49.9204 15.7204C49.9335 15.9053 49.9005 16.0874 49.8386 16.3256C49.2698 16.625 48.7165 16.8431 48.1923 17.1165C46.6119 17.9408 46.1566 19.4028 46.9779 20.9762C47.2504 21.4981 47.548 22.0069 47.8341 22.5217ZM26.1329 27.4679C27.0477 26.4265 28.2134 25.8344 29.5765 25.5956C28.0853 25.3879 26.7356 26.0866 25.9593 27.4699C25.9671 27.4962 25.9748 27.5224 25.9826 27.5486C26.0102 27.5255 26.0379 27.5023 26.1329 27.4679ZM34.0538 25.975C34.208 26.0549 34.3621 26.1349 34.5163 26.2149C32.0829 23.7038 26.2654 24.0918 25.3475 26.8598C25.6237 26.6248 25.8378 26.4617 26.0298 26.276C27.0906 25.25 28.3436 24.6779 29.8355 24.7212C31.3228 24.7643 32.7033 25.2047 34.0538 25.975ZM41.3234 16.2642C40.9707 16.1734 40.618 16.0827 40.1935 15.9734C40.2621 16.0942 40.2705 16.132 40.2936 16.1463C41.1171 16.6578 41.9387 17.1722 42.7674 17.6752C43.6973 18.2397 44.1373 19.1791 43.942 20.2461C43.8831 20.5684 43.79 20.8846 43.6988 21.2603C44.3614 20.6821 44.5289 19.8953 44.1803 19.0143C43.6601 17.6994 42.6288 16.8902 41.3234 16.2642ZM41.5306 22.7711C41.8799 22.2892 42.1702 21.7898 42.009 21.1383C41.4166 22.7586 40.2647 23.7662 38.6202 24.3099C38.7461 24.4003 38.8852 24.4662 38.9802 24.4267C39.9094 24.0414 40.851 23.6689 41.5306 22.7711ZM32.8119 20.9914C33.1307 21.2978 33.2573 21.8044 33.7905 21.8925C33.1094 20.9867 32.4283 20.081 31.7472 19.1752C31.6961 19.2117 31.6449 19.2481 31.5938 19.2846C31.9865 19.8341 32.3791 20.3836 32.8119 20.9914ZM42.2793 24.2983C41.8678 24.4723 41.4563 24.6463 41.0449 24.8203C41.0583 24.863 41.0716 24.9057 41.085 24.9484C41.8794 24.76 42.6737 24.5717 43.4681 24.3833C43.4673 24.348 43.4665 24.3127 43.4657 24.2774C43.0968 24.2774 42.7279 24.2774 42.2793 24.2983Z" fill="white"/>
<path d="M49.7657 51.9832C49.5409 52.8432 49.3161 53.7033 49.0435 54.6077C48.6917 54.9247 48.3983 55.2103 48.0814 55.4672C47.5183 55.9235 46.9073 56.284 46.1437 56.2494C46.1234 55.3881 46.108 54.5716 46.1211 53.7357C46.53 53.4602 46.9105 53.2042 47.2909 52.9481C47.2909 52.9481 47.2862 52.9519 47.3182 52.967C47.3952 52.9621 47.4402 52.9421 47.5147 52.9121C47.6587 52.8191 47.7731 52.7361 47.8876 52.6532C47.8876 52.6532 47.8829 52.6572 47.9142 52.6568C47.9586 52.6219 47.9716 52.5873 47.9847 52.5527C47.9847 52.5527 47.9805 52.5566 48.0132 52.5749C48.3465 52.4347 48.6354 52.2448 48.9516 52.1278C49.2058 52.0337 49.4931 52.0281 49.7657 51.9832Z" fill="#EF5B2A"/>
<path d="M46.1477 56.2944C46.9064 56.2841 47.5174 55.9236 48.0805 55.4673C48.3974 55.2105 48.6908 54.9249 49.0257 54.6414C49.0203 54.8859 48.9841 55.1412 48.9136 55.4147C48.303 55.6923 47.7247 55.9477 47.1511 56.2129C46.7513 56.3977 46.3578 56.596 45.8931 56.7946C45.644 56.7598 45.4634 56.7188 45.2236 56.6643C45.5745 56.5239 45.8611 56.4091 46.1477 56.2944Z" fill="#0A2540"/>
<path d="M49.7997 51.9634C49.491 52.028 49.2038 52.0337 48.9495 52.1277C48.6334 52.2447 48.3445 52.4347 48.0088 52.5764C48.618 51.9872 49.2624 51.4148 49.9386 50.8618C49.9256 51.2355 49.8807 51.5896 49.7997 51.9634Z" fill="#0A2540"/>
<path d="M48.5675 58.8374C48.0817 58.9184 47.579 58.9629 47.0763 59.0074C47.0593 58.9617 47.0424 58.916 47.0254 58.8703C47.4798 58.6102 47.9342 58.3501 48.424 58.0894C48.4898 58.3261 48.5202 58.5635 48.5675 58.8374Z" fill="#0A2540"/>
<path d="M49.9954 50.8802C49.9622 50.8638 49.9525 50.8409 49.9521 50.8178C49.952 50.809 49.9734 50.7998 50.017 50.7839C50.0402 50.8092 50.0314 50.8414 49.9954 50.8802Z" fill="#0A2540"/>
<path d="M36.7763 49.1077C36.2194 48.6809 35.686 48.2184 35.1003 47.8352C34.0296 47.1348 33.1072 46.289 32.3721 45.2485C31.5519 44.0876 30.4842 43.2156 29.2354 42.4919C29.4741 42.4461 29.7343 42.4132 29.9946 42.4133C31.7916 42.4141 33.5885 42.4218 35.431 42.4804C35.3947 43.6891 35.7902 44.6284 36.7713 45.2805C37.617 45.8426 38.554 45.8677 39.5313 45.7443C40.0952 45.6732 40.6894 45.6336 41.2431 45.7312C42.5045 45.9535 43.7492 46.2692 45.0007 46.547C44.969 47.4941 44.9372 48.4413 44.8587 49.44C44.1746 49.4748 43.5044 49.578 42.9069 49.4157C41.744 49.0998 40.6226 48.6332 39.4823 48.2339C39.2937 48.1679 39.0961 48.1273 38.9027 48.075C39.2013 48.3239 39.5109 48.4946 39.8148 48.6748C41.5368 49.6954 43.4165 50.0533 45.3955 49.9971C45.3577 50.6632 45.1534 50.8484 44.5099 50.8118C44.2795 50.7986 44.0459 50.7803 43.8181 50.8048C43.6955 50.8179 43.5821 50.9167 43.4646 50.9768C43.5745 51.0401 43.6808 51.1496 43.795 51.1586C44.2718 51.1963 44.751 51.2138 45.2294 51.2188C45.5283 51.222 45.6697 51.3327 45.6996 51.6443C45.7499 52.1667 45.8413 52.6851 45.8951 53.2688C45.2993 53.4414 44.7238 53.5504 44.1484 53.6594C44.1546 53.6914 44.1609 53.7233 44.1671 53.7552C44.8087 53.7552 45.4503 53.7552 46.0918 53.7552C46.1072 54.5717 46.1226 55.3882 46.143 56.2495C45.8613 56.4091 45.5746 56.5238 45.2238 56.6643C45.4636 56.7187 45.6442 56.7598 45.861 56.8104C45.618 57.4291 45.3527 58.0452 45.0497 58.6422C44.9775 58.7845 44.7796 58.9568 44.6387 58.9575C42.0976 58.9695 39.5564 58.9574 36.9888 58.9166C37.0639 57.5514 37.1639 56.22 37.2682 54.8888C37.2935 54.5652 37.3332 54.2428 37.401 53.8671C37.56 53.8781 37.7146 53.9141 37.8038 54.0102C38.274 54.5174 38.7252 55.0421 39.1888 55.5555C39.3116 55.6916 39.4546 55.8096 39.6373 55.982C39.6373 55.8566 39.649 55.82 39.6356 55.8035C38.9124 54.9118 38.1871 54.0218 37.4619 53.1315C37.3331 52.0066 37.2043 50.8817 37.1108 49.7243C37.7921 50.278 38.4388 50.8637 39.0839 51.451C39.2502 51.6025 39.4113 51.7556 39.5423 51.4038C39.1113 51.0283 38.6968 50.6525 38.2662 50.2959C37.7771 49.8909 37.2736 49.503 36.7763 49.1077Z" fill="white"/>
<path d="M46.1416 36.1628C45.6782 37.7423 45.1678 39.3102 44.7652 40.9049C44.4044 42.334 44.4355 43.7977 44.6611 45.2547C44.6961 45.4805 44.6945 45.7119 44.6709 45.999C43.8516 45.8799 43.0485 45.7683 42.2965 45.5098C41.2238 45.1409 40.1838 45.0914 39.1084 45.4501C38.8393 45.5398 38.5109 45.6109 38.2501 45.5413C36.7715 45.1465 35.7705 44.2541 35.9058 42.4676C36.4814 42.4487 37.057 42.4175 37.6327 42.4133C38.8043 42.4047 39.9761 42.4107 41.2325 42.4107C41.2325 40.1686 41.2325 37.9569 41.2769 35.7056C42.1469 35.9736 42.3161 35.9152 43.0398 35.0469C43.8938 35.9024 44.8569 36.4951 46.1416 36.1628Z" fill="white"/>
<path d="M35.8726 42.447C35.7687 44.2541 36.7698 45.1466 38.2483 45.5413C38.5092 45.611 38.8376 45.5398 39.1066 45.4501C40.182 45.0914 41.222 45.141 42.2947 45.5098C43.0468 45.7684 43.8499 45.8799 44.6718 46.0429C45.3357 45.8925 45.9697 45.795 46.5775 45.6117C47.5999 45.3033 48.6038 45.1846 49.6103 45.6435C49.6699 45.6707 49.7296 45.6992 49.7849 45.7339C49.8087 45.7488 49.8216 45.7809 49.9073 45.8976C49.6003 45.8708 49.3606 45.8799 49.1369 45.8249C48.3769 45.6379 47.6392 45.6977 46.9034 45.9449C46.2978 46.1485 45.6845 46.3291 45.0376 46.5334C43.749 46.2693 42.5043 45.9536 41.2429 45.7312C40.6893 45.6336 40.095 45.6732 39.5311 45.7444C38.5538 45.8677 37.6168 45.8426 36.7711 45.2805C35.79 44.6285 35.3945 43.6891 35.475 42.4937C35.5961 42.4448 35.7187 42.4356 35.8726 42.447Z" fill="#0A2540"/>
<path d="M46.1598 36.1394C44.8555 36.4954 43.8924 35.9027 43.0383 35.0472C42.3147 35.9155 42.1455 35.9739 41.2833 35.6592C41.243 35.5579 41.2392 35.4638 41.2404 35.3346C41.636 35.2994 42.0267 35.2994 42.488 35.2994C42.3586 34.9946 42.2588 34.7564 42.1567 34.5193C42.0558 34.2853 41.9526 34.0522 41.8237 33.7577C42.6515 33.8891 43.2264 34.3094 43.5602 34.9467C43.92 35.6337 44.364 35.9018 45.1213 35.6729C45.4969 35.5594 45.8955 35.521 46.3406 35.4091C46.6033 35.196 46.8091 35.0226 47.0535 34.8562C47.1444 34.866 47.1966 34.8687 47.2418 34.9089C47.5835 35.1478 47.9111 35.4125 48.2857 35.5357C48.858 35.7239 49.492 35.4293 49.8275 34.9192C50.2286 34.3093 50.3333 33.3172 49.9913 32.9133C49.7387 32.6151 49.4194 32.3728 49.1298 32.1056C49.074 31.9257 49.0621 31.8009 49.3196 31.9116C50.2929 32.3301 50.6458 32.9264 50.5775 34.0546C50.5264 34.8993 49.8501 35.7242 49.0093 35.9483C48.2661 36.1464 47.6557 35.8672 47.1044 35.3458C46.7815 35.6145 46.4804 35.8651 46.1598 36.1394Z" fill="#0A2540"/>
<path d="M23.0137 28.2607C23.4001 27.3855 23.7714 26.491 24.2577 25.6633C25.7277 23.1611 28.0068 22.1063 30.8528 22.2059C31.6908 22.2352 32.5231 22.4246 33.358 22.5406C33.3485 22.6077 33.3391 22.6748 33.3296 22.742C32.8878 22.6863 32.4471 22.6203 32.0041 22.5767C29.8391 22.3635 27.8167 22.716 26.0957 24.1417C24.7931 25.2208 23.9724 26.6346 23.3676 28.2262C23.2577 28.2655 23.1544 28.2687 23.0137 28.2607Z" fill="#0A2540"/>
<path d="M61.9376 33.3668C60.6051 33.9972 59.2155 34.1142 57.8115 34.0558C56.4203 33.998 55.1223 33.5703 53.9201 32.8723C53.637 32.7079 53.3624 32.5159 53.1209 32.2962C52.6301 31.8497 52.5575 31.3346 52.941 30.7978C53.2065 30.4262 53.517 30.0724 53.8625 29.7737C55.231 28.5905 56.6682 27.5468 58.5667 27.3493C60.1948 27.18 61.5247 27.7397 62.6113 28.8884C63.0692 29.3724 63.4345 29.9526 63.7889 30.5218C64.1476 31.0979 64.0486 31.6896 63.5572 32.1351C63.0659 32.5805 62.5017 32.9462 61.9376 33.3668Z" fill="#0A2540"/>
<path d="M49.1154 32.0795C49.4194 32.3726 49.7386 32.6148 49.9913 32.9131C50.3333 33.317 50.2286 34.3091 49.8274 34.919C49.492 35.4291 48.858 35.7237 48.2856 35.5354C47.9111 35.4123 47.5834 35.1476 47.275 34.8971C47.6193 34.6186 47.9235 34.3894 48.2277 34.1601C48.1905 34.1108 48.1533 34.0616 48.1161 34.0123C47.749 34.2911 47.3819 34.57 47.0148 34.8489C46.809 35.0223 46.6032 35.1958 46.3675 35.3791C46.29 34.144 46.2457 32.8991 46.1934 31.6544C46.1736 31.1806 46.1355 30.7075 46.14 30.1873C47.1107 30.2549 47.8532 30.721 48.4954 31.3851C48.6037 31.4971 48.7815 31.5424 48.9272 31.6185C48.9851 31.7635 49.043 31.9086 49.1154 32.0795Z" fill="#EF5B2A"/>
<path d="M63.7957 35.7192C65.6063 34.5151 66.3649 32.7858 66.2494 30.735C66.0959 28.0085 65.1023 25.6718 62.5888 24.2328C61.1764 23.4242 59.6666 23.1536 58.0553 23.4928C57.002 23.7146 55.9423 23.9064 54.8854 24.1116C54.8667 24.0489 54.8479 23.9861 54.8291 23.9234C55.6319 23.6686 56.4226 23.3638 57.2398 23.1688C59.3869 22.6565 61.4333 22.8808 63.3256 24.102C64.5567 24.8964 65.3089 26.0361 65.8178 27.3717C66.3989 28.897 66.6844 30.4686 66.6165 32.102C66.5473 33.7692 64.8234 35.9765 63.1847 36.4523C62.2032 36.7374 61.2153 37.0267 60.17 36.8565C59.9994 36.8288 59.8323 36.78 59.667 36.7034C61.0935 36.6047 62.5014 36.4784 63.7957 35.7192Z" fill="#0A2540"/>
<path d="M49.5555 16.9973C49.0142 18.5019 48.4729 20.0065 47.876 21.5238C46.8053 20.5018 46.5908 19.3 47.2956 18.3549C47.8555 17.6041 48.6361 17.176 49.5555 16.9973Z" fill="white"/>
<path d="M49.5789 16.9683C48.6369 17.1759 47.8563 17.6039 47.2964 18.3548C46.5916 19.2999 46.8061 20.5017 47.8525 21.5518C49.0022 22.9267 50.3588 23.9584 52.0071 24.6535C51.599 24.5523 51.1452 24.5321 50.7916 24.3344C49.8041 23.7822 48.858 23.1566 47.8652 22.5407C47.5487 22.0067 47.2511 21.4978 46.9786 20.976C46.1573 19.4025 46.6126 17.9405 48.193 17.1162C48.7172 16.8428 49.2705 16.6247 49.8397 16.3655C50.1376 16.3864 50.4063 16.4232 50.675 16.4601C50.6821 16.4896 50.6891 16.5192 50.6961 16.5488C50.3313 16.679 49.9664 16.8093 49.5789 16.9683Z" fill="#0A2540"/>
<path d="M52.2298 36.377C52.4305 36.7291 52.6692 37.0353 52.7759 37.3818C53.2577 38.9464 53.7575 40.5092 54.1417 42.0988C54.4224 43.2604 54.2537 44.3923 53.3169 45.2777C53.1596 45.4263 52.9589 45.5294 52.7164 45.5797C52.7554 45.5176 52.7849 45.4462 52.835 45.3948C53.7859 44.4177 54.0861 43.2281 53.6738 41.9766C52.9711 39.8441 52.146 37.7514 51.3592 35.6468C51.2845 35.4471 51.1166 35.2819 50.917 34.9917C51.5842 35.3339 51.7921 35.9424 52.2298 36.377Z" fill="#0A2540"/>
<path d="M48.9202 31.5826C48.7821 31.5422 48.6043 31.4969 48.496 31.385C47.8537 30.7208 47.1113 30.2548 46.1356 30.1463C44.8521 30.1946 43.6078 30.2368 42.4414 30.2764C43.335 29.4484 44.568 29.4398 45.8522 29.4421C46.3005 29.5738 46.7127 29.6931 47.104 29.8606C47.9062 30.2041 48.4851 30.7982 48.9202 31.5826Z" fill="#0A2540"/>
<path d="M45.4275 49.9757C43.4171 50.0532 41.5374 49.6953 39.8154 48.6747C39.5115 48.4946 39.2019 48.3238 38.9033 48.075C39.0967 48.1273 39.2943 48.1679 39.4829 48.2339C40.6232 48.6331 41.7446 49.0998 42.9075 49.4157C43.505 49.578 44.1752 49.4748 44.859 49.4852C45.8681 49.3491 46.8309 49.2193 47.7937 49.0896C47.8087 49.1502 47.8237 49.2107 47.8388 49.2713C47.0454 49.499 46.2521 49.7267 45.4275 49.9757Z" fill="#0A2540"/>
<path d="M56.0107 26.4754C56.8628 25.7871 57.8511 25.4088 58.9221 25.24C60.6335 24.9704 62.2185 25.2769 63.5568 26.4177C63.9552 26.7573 64.2265 27.2447 64.556 27.6644C64.5166 27.7 64.4773 27.7356 64.4379 27.7712C64.3774 27.7205 64.3039 27.6793 64.2582 27.6176C63.0176 25.941 61.3685 25.2734 59.3193 25.6982C58.249 25.9201 57.1974 26.2315 56.0896 26.5018C56.0417 26.5013 56.0107 26.4754 56.0107 26.4754Z" fill="#0A2540"/>
<path d="M51.5095 28.1199C51.6485 27.8184 51.7729 27.5527 51.8973 27.2871C51.9569 27.3052 52.0165 27.3232 52.0762 27.3413C51.4469 29.0621 51.7261 30.8481 51.6001 32.6098C50.8624 31.1404 51.0565 29.6513 51.5095 28.1199Z" fill="#0A2540"/>
<path d="M46.137 27.3828C44.8684 27.389 43.6408 27.389 42.4463 27.389C43.6042 26.7975 44.9104 26.9086 46.2411 26.8735C46.9 27.1047 47.5134 27.3422 48.1267 27.5796C48.1147 27.6237 48.1027 27.6677 48.0907 27.7118C47.4531 27.6 46.8156 27.4883 46.137 27.3828Z" fill="#0A2540"/>
<path d="M63.9908 34.2234C63.8824 34.3853 63.8088 34.595 63.6604 34.702C61.9918 35.9049 60.1548 36.11 58.1934 35.5491C60.2605 35.7887 62.1722 35.4049 63.9245 34.1958C63.9691 34.2007 63.9908 34.2234 63.9908 34.2234Z" fill="#0A2540"/>
<path d="M55.1953 22.7962C55.328 21.7139 55.4607 20.6315 55.5875 19.5967C56.0823 19.8622 56.4358 20.6682 56.1592 21.4183C55.9737 21.9211 55.5892 22.3512 55.2531 22.8149C55.2126 22.816 55.1953 22.7962 55.1953 22.7962Z" fill="#0A2540"/>
<path d="M58.6596 40.1384C58.5338 40.0346 58.4451 39.9443 58.3564 39.8541C58.3784 39.8087 58.4004 39.7634 58.4224 39.718C59.6203 39.8646 60.8183 40.0112 62.0162 40.1577C60.8971 40.6611 59.794 40.5684 58.6596 40.1384Z" fill="#0A2540"/>
<path d="M60.5199 21.2733C60.7676 20.898 60.9922 20.5502 61.2562 20.1414C61.539 21.1158 60.686 22.242 59.4746 22.4635C59.8153 22.0759 60.156 21.6883 60.5199 21.2733Z" fill="#0A2540"/>
<path d="M53.4115 22.9375C53.0299 21.8693 52.6619 20.8354 52.2939 19.8015C52.7972 20.1788 53.2286 20.5772 53.3075 21.234C53.3818 21.853 53.5076 22.4658 53.5239 23.1109C53.491 23.0645 53.4582 23.0181 53.4115 22.9375Z" fill="#0A2540"/>
<path d="M46.9274 24.6218C46.5942 24.5275 46.2993 24.4325 46.0044 24.3375C46.0036 24.3131 46.0028 24.2887 46.002 24.2642C46.3284 24.2123 46.6549 24.1604 47.0208 24.1018C47.9514 24.4609 48.8424 24.8267 49.7335 25.1925C49.7224 25.2233 49.7113 25.2542 49.7002 25.285C48.7887 25.0637 47.8772 24.8424 46.9274 24.6218Z" fill="#0A2540"/>
<path d="M47.1733 23.2016C46.4178 23.13 45.6795 23.0269 44.9404 22.9308C44.6006 22.8867 44.2589 22.8565 43.7998 22.8073C45.037 22.3765 46.1306 22.5341 47.2515 22.9255C47.2547 23.0153 47.2224 23.0941 47.1733 23.2016Z" fill="#0A2540"/>
<path d="M63.5389 28.0797C62.4876 27.0437 61.2243 26.4336 59.7627 26.221C61.3413 26.1332 62.6978 26.5314 63.5857 27.9933C63.5666 28.0534 63.5528 28.0666 63.5389 28.0797Z" fill="#0A2540"/>
<path d="M56.1278 42.4774C56.1294 41.9308 56.1294 41.4326 56.1294 40.9077C56.7804 41.1974 56.7018 43.1689 56.0254 44.064C56.0619 43.5073 56.094 43.0166 56.1278 42.4774Z" fill="#0A2540"/>
<path d="M46.4307 26.1048C46.0331 26.0192 45.6739 25.9337 45.3148 25.8482C45.3121 25.8194 45.3093 25.7906 45.3066 25.7619C45.6722 25.7231 46.0377 25.6843 46.442 25.6384C47.254 25.9485 48.0272 26.2657 48.8004 26.5828C48.7906 26.6122 48.7808 26.6415 48.7711 26.6709C48.0037 26.4822 47.2364 26.2936 46.4307 26.1048Z" fill="#0A2540"/>
<path d="M58.0754 21.2798C58.2304 20.6399 58.3703 20.0353 58.5129 19.4187C59.0765 20.166 58.7262 21.2862 57.6641 21.8875C57.8396 21.6338 57.9499 21.4745 58.0754 21.2798Z" fill="#0A2540"/>
<path d="M46.1194 53.7359C45.4493 53.7554 44.8078 53.7554 44.1662 53.7554C44.1599 53.7234 44.1537 53.6915 44.1475 53.6596C44.7229 53.5506 45.2984 53.4415 45.9081 53.3125C46.3657 53.1784 46.789 53.0642 47.2508 52.9492C46.9088 53.2044 46.5283 53.4605 46.1194 53.7359Z" fill="#0A2540"/>
<path d="M64.3547 33.8959C64.6158 33.3213 64.8769 32.7467 65.138 32.1721C65.1944 32.1998 65.2509 32.2276 65.3073 32.2553C65.3229 32.9558 64.7927 33.3739 64.381 33.88C64.3506 33.891 64.3547 33.8959 64.3547 33.8959Z" fill="#0A2540"/>
<path d="M56.0558 26.5146C55.687 26.8623 55.3031 27.1967 54.9192 27.5311C54.8752 27.4793 54.8311 27.4276 54.7871 27.3759C55.1717 27.0783 55.5562 26.7807 55.9752 26.4792C56.0097 26.4752 56.0407 26.5011 56.0558 26.5146Z" fill="#0A2540"/>
<path d="M47.8522 52.6465C47.7719 52.7365 47.6574 52.8194 47.5132 52.895C47.4835 52.8875 47.4834 52.8525 47.4834 52.8525C47.595 52.7815 47.7066 52.7105 47.8522 52.6465Z" fill="#0A2540"/>
<path d="M55.2227 22.8254C55.19 22.9149 55.1483 22.9947 55.1067 23.0745C55.0796 23.0628 55.0525 23.0511 55.0254 23.0395C55.0636 22.9662 55.1019 22.8929 55.1683 22.8079C55.1966 22.796 55.2138 22.8158 55.2227 22.8254Z" fill="#0A2540"/>
<path d="M63.601 28.0225C63.6675 28.0776 63.7118 28.1506 63.7561 28.2237C63.7372 28.2402 63.7184 28.2567 63.6996 28.2731C63.6519 28.2296 63.6042 28.1861 63.5469 28.1113C63.5511 28.0667 63.5649 28.0536 63.601 28.0225Z" fill="#0A2540"/>
<path d="M47.4527 52.8513C47.484 52.8524 47.4841 52.8874 47.4843 52.9049C47.4396 52.9424 47.3948 52.9623 47.3154 52.9688C47.3278 52.9203 47.3746 52.8853 47.4527 52.8513Z" fill="#0A2540"/>
<path d="M47.9537 52.5569C47.9717 52.5878 47.9585 52.6228 47.9113 52.6601C47.8923 52.6286 47.9075 52.5948 47.9537 52.5569Z" fill="#0A2540"/>
<path d="M50.818 35.0285C50.8125 35.0291 50.8234 35.0279 50.818 35.0285V35.0285Z" fill="#0A2540"/>
<path d="M63.79 28.386C63.8145 28.3822 63.8236 28.3933 63.8326 28.4045C63.8133 28.4033 63.7939 28.4022 63.79 28.386Z" fill="#0A2540"/>
<path d="M63.957 34.1904C63.9655 34.1562 63.9848 34.1337 64.0042 34.1111C64.0111 34.1382 64.018 34.1653 64.0073 34.2086C63.9898 34.2248 63.9679 34.2019 63.957 34.1904Z" fill="#0A2540"/>
<path d="M64.3503 33.8882C64.3327 33.9098 64.3172 33.934 64.3018 33.9583C64.305 33.9327 64.3083 33.9072 64.3341 33.8888C64.3566 33.8959 64.3524 33.8908 64.3503 33.8882Z" fill="#0A2540"/>
<path d="M34.0236 25.9526C32.7024 25.2044 31.3219 24.7641 29.8346 24.721C28.3427 24.6777 27.0897 25.2498 26.0289 26.2758C25.8369 26.4615 25.6228 26.6246 25.3467 26.8596C26.2646 24.0916 32.082 23.7036 34.5154 26.2146C34.3613 26.1347 34.2071 26.0547 34.0236 25.9526Z" fill="#0A2540"/>
<path d="M41.3589 16.2801C42.6296 16.8902 43.6609 17.6994 44.1812 19.0143C44.5297 19.8953 44.3622 20.6821 43.6996 21.2603C43.7908 20.8846 43.8839 20.5684 43.9429 20.2461C44.1381 19.1791 43.6981 18.2397 42.7682 17.6752C41.9395 17.1722 41.1179 16.6577 40.2945 16.1463C40.2714 16.132 40.263 16.0942 40.1943 15.9734C40.6188 16.0827 40.9716 16.1734 41.3589 16.2801Z" fill="#0A2540"/>
<path d="M41.5089 22.7989C40.8509 23.6688 39.9093 24.0413 38.9801 24.4267C38.885 24.4661 38.746 24.4002 38.6201 24.3098C40.2645 23.7661 41.4164 22.7586 42.0089 21.1382C42.17 21.7897 41.8798 22.2891 41.5089 22.7989Z" fill="#0A2540"/>
<path d="M25.9834 27.42C26.7337 26.0865 28.0834 25.3878 29.5746 25.5954C28.2115 25.8342 27.0457 26.4264 26.0781 27.4574C26.0113 27.4381 25.9973 27.4291 25.9834 27.42Z" fill="#0A2540"/>
<path d="M32.7918 20.9621C32.3791 20.3835 31.9864 19.8339 31.5938 19.2844C31.6449 19.248 31.696 19.2115 31.7471 19.175C32.4282 20.0808 33.1093 20.9866 33.7904 21.8924C33.2573 21.8043 33.1307 21.2976 32.7918 20.9621Z" fill="#0A2540"/>
<path d="M42.3182 24.2878C42.727 24.2773 43.0959 24.2773 43.4648 24.2773C43.4656 24.3126 43.4664 24.348 43.4672 24.3833C42.6728 24.5716 41.8785 24.76 41.0841 24.9483C41.0707 24.9057 41.0573 24.863 41.0439 24.8203C41.4554 24.6463 41.8669 24.4722 42.3182 24.2878Z" fill="#0A2540"/>
<path d="M36.7725 49.1421C37.2739 49.5031 37.7774 49.891 38.2665 50.296C38.6971 50.6526 39.1117 51.0284 39.5427 51.4039C39.4117 51.7558 39.2506 51.6026 39.0842 51.4512C38.4391 50.8638 37.7925 50.2781 37.1157 49.6779C36.9795 49.5015 36.8738 49.3389 36.7725 49.1421Z" fill="#0A2540"/>
<path d="M37.4266 53.1519C38.1877 54.0218 38.9131 54.9119 39.6363 55.8036C39.6497 55.8201 39.638 55.8567 39.638 55.9821C39.4553 55.8096 39.3123 55.6917 39.1894 55.5556C38.7259 55.0421 38.2747 54.5175 37.8044 54.0103C37.7153 53.9142 37.5607 53.8782 37.4051 53.8221C37.3795 53.6106 37.3851 53.3913 37.4266 53.1519Z" fill="#0A2540"/>
<path d="M47.0537 34.8559C47.3821 34.5699 47.7492 34.2911 48.1163 34.0122C48.1535 34.0615 48.1907 34.1107 48.2279 34.16C47.9237 34.3893 47.6196 34.6185 47.2822 34.8594C47.1968 34.8684 47.1446 34.8657 47.0537 34.8559Z" fill="#0A2540"/>
</svg>
